<svg width="1920" height="1045" viewBox="0 0 1920 1045" fill="none" xmlns="http://www.w3.org/2000/svg">
<path d="M1605.76 596.901C1616.55 575.125 1642.94 566.215 1664.72 577.001L1916.63 701.764C1938.4 712.549 1947.31 738.945 1936.53 760.721L1811.77 1012.63C1800.98 1034.4 1774.58 1043.31 1752.81 1032.53L1500.9 907.765C1479.13 896.98 1470.22 870.584 1481 848.808L1605.76 596.901Z" fill="#259E92"/>
<path d="M1663.69 646.187C1678.96 627.283 1706.67 624.338 1725.57 639.608L1906.41 785.692C1925.32 800.962 1928.26 828.665 1912.99 847.569L1766.91 1028.41C1751.64 1047.32 1723.94 1050.26 1705.03 1034.99L1524.19 888.908C1505.28 873.638 1502.34 845.935 1517.61 827.032L1663.69 646.187Z" fill="#3AC0B2"/>
<path d="M1709.53 705.117C1728.83 690.36 1756.45 694.048 1771.2 713.355L1863.06 833.527C1877.81 852.833 1874.13 880.447 1854.82 895.204L1734.65 987.058C1715.34 1001.81 1687.73 998.126 1672.97 978.82L1581.12 858.648C1566.36 839.341 1570.05 811.727 1589.35 796.97L1709.53 705.117Z" fill="#55DED1"/>
<rect x="-25" y="699.769" width="367" height="367" rx="183.5" transform="rotate(-13.5151 -25 699.769)" fill="#ED9735"/>
<rect x="-12.125" y="753.336" width="311.907" height="311.907" rx="155.953" transform="rotate(-13.5151 -12.125 753.336)" fill="#F4AA55"/>
<rect x="46" y="764.915" width="239.258" height="239.258" rx="119.629" transform="rotate(-13.5151 46 764.915)" fill="#FCC07C"/>
<path d="M1426.39 33.4543C1435.12 0.727946 1476 -10.2737 1499.98 13.6513L1712.09 225.307C1736.06 249.232 1725.15 290.14 1692.44 298.941L1403.09 376.803C1370.38 385.604 1340.41 355.698 1349.14 322.971L1426.39 33.4543Z" fill="#EA6142"/>
<path d="M1451.92 85.75C1460.9 53.0923 1501.87 42.4078 1525.66 66.518L1670.09 212.893C1693.88 237.003 1682.65 277.825 1649.88 286.373L1450.9 338.266C1418.12 346.813 1388.38 316.676 1397.37 284.018L1451.92 85.75Z" fill="#FC7152"/>
<path d="M1469.43 118.672C1481.1 86.8747 1522.81 79.6332 1544.52 105.638L1634.19 213.081C1655.89 239.085 1641.31 278.832 1607.93 284.626L1470.05 308.561C1436.68 314.355 1409.55 281.849 1421.22 250.051L1469.43 118.672Z" fill="#FF8A70"/>
<path d="M142.087 145.878C146.955 127.448 163.137 114.249 182.169 113.184L424.678 99.6126C443.71 98.5475 461.264 109.859 468.158 127.63L556.005 354.076C562.899 371.847 557.566 392.037 542.795 404.085L354.578 557.608C339.807 569.657 318.957 570.824 302.934 560.499L98.7629 428.935C82.7395 418.61 75.187 399.142 80.0553 380.712L142.087 145.878Z" fill="#407EEF"/>
<path d="M224.789 159.886C234.983 143.779 254.389 136.067 272.858 140.785L436.285 182.531C454.754 187.248 468.084 203.322 469.305 222.345L480.104 390.673C481.324 409.696 470.157 427.341 452.442 434.38L295.69 496.667C277.975 503.706 257.743 498.538 245.574 483.865L137.896 354.033C125.728 339.36 124.391 318.521 134.585 302.414L224.789 159.886Z" fill="#6298FA"/>
<path d="M270.334 209.761C283.66 196.132 304.247 192.633 321.328 201.095L402.601 241.361C419.681 249.824 429.371 268.322 426.601 287.182L413.42 376.92C410.65 395.779 396.051 410.711 377.259 413.904L287.84 429.1C269.047 432.293 250.336 423.023 241.491 406.137L199.407 325.79C190.563 308.904 193.597 288.243 206.924 274.614L270.334 209.761Z" fill="#81AEFF"/>
</svg>
