<svg width="43" height="43" viewBox="0 0 43 43" fill="none" xmlns="http://www.w3.org/2000/svg">
<path d="M21.5 3.5835C11.1101 3.5835 2.6875 10.4017 2.6875 18.8127C2.6875 24.1787 6.12392 28.8863 11.3036 31.5989L9.31577 38.2254C9.19483 38.6276 9.64365 38.96 9.99302 38.727L17.5377 33.6969C18.8161 33.9191 20.1401 34.0418 21.5 34.0418C31.8899 34.0418 40.3125 27.2236 40.3125 18.8127C40.3125 10.4017 31.8899 3.5835 21.5 3.5835Z" fill="#263238"/>
<path d="M13.4368 16.1249H8.06185C7.56735 16.1249 7.16602 15.7236 7.16602 15.2291C7.16602 14.7346 7.56735 14.3333 8.06185 14.3333H13.4368C13.9313 14.3333 14.3327 14.7346 14.3327 15.2291C14.3327 15.7236 13.9313 16.1249 13.4368 16.1249Z" fill="#FFCA28"/>
<path d="M22.3965 23.2916V15.2291C22.3965 14.7346 22.7978 14.3333 23.2923 14.3333C23.7868 14.3333 24.1882 14.7346 24.1882 15.2291V23.2916C24.1882 23.7861 23.7868 24.1874 23.2923 24.1874C22.7978 24.1874 22.3965 23.7861 22.3965 23.2916Z" fill="#FFCA28"/>
<path d="M28.666 23.2916V15.2291C28.666 14.7346 29.0673 14.3333 29.5618 14.3333C30.0563 14.3333 30.4577 14.7346 30.4577 15.2291V23.2916C30.4577 23.7861 30.0563 24.1874 29.5618 24.1874C29.0673 24.1874 28.666 23.7861 28.666 23.2916Z" fill="#FFCA28"/>
<path d="M29.223 18.9978L33.6251 14.5957C33.9754 14.2454 34.5424 14.2454 34.8918 14.5957C35.2421 14.946 35.2421 15.513 34.8918 15.8624L30.4897 20.2645C30.1394 20.6148 29.5723 20.6148 29.223 20.2645C28.8736 19.9152 28.8736 19.3481 29.223 18.9978Z" fill="#FFCA28"/>
<path d="M32.3204 18.5124L35.6422 22.738C35.9477 23.1268 35.8805 23.6903 35.4917 23.9958C35.1029 24.3013 34.5394 24.2341 34.2339 23.8453L30.9122 19.6196C30.6067 19.2308 30.6739 18.6674 31.0627 18.3619C31.4515 18.0564 32.0149 18.1236 32.3204 18.5124Z" fill="#FFCA28"/>
<path d="M26.8757 24.1874H23.2923C22.7978 24.1874 22.3965 23.7861 22.3965 23.2916C22.3965 22.7971 22.7978 22.3958 23.2923 22.3958H26.8757C27.3702 22.3958 27.7715 22.7971 27.7715 23.2916C27.7715 23.7861 27.3702 24.1874 26.8757 24.1874Z" fill="#FFCA28"/>
<path d="M21.4406 22.9711L18.5551 14.9086C18.4252 14.5691 18.1099 14.3612 17.7686 14.3451C17.6691 14.3406 17.2848 14.3424 17.1943 14.3442C16.8432 14.3505 16.5162 14.5601 16.3827 14.9086L13.4972 22.9711C13.3198 23.4333 13.551 23.9511 14.0132 24.1285C14.4755 24.3059 14.9933 24.0747 15.1706 23.6125L15.606 22.396H19.3327L19.7681 23.6125C19.9454 24.0747 20.4632 24.305 20.9255 24.1285C21.3877 23.952 21.6179 23.4324 21.4406 22.9711ZM16.2474 20.6043L17.4693 17.1894L18.6913 20.6043H16.2474Z" fill="#FFCA28"/>
<path d="M11.6452 16.125H9.85352V23.2917C9.85352 23.7862 10.2548 24.1875 10.7493 24.1875C11.2438 24.1875 11.6452 23.7862 11.6452 23.2917V16.125Z" fill="#FFCA28"/>
</svg>
